# xmcd CD database file
#
# Track frame offsets:
#	150
#	12106
#	46451
#	107002
#	131057
#	165680
#	183787
#	226992
#	255388
#	278177
#	295645
#
# Disc length: 4736 seconds
#
# Revision: 2
# Processed by: cddbd v1.5PL3 Copyright (c) Steve Scherf et al.
# Submitted via: CDex 1.51
#
DISCID=8d127e0b
DTITLE=Phish - Le Spectrum, England 12-13-92 Disc 1
DYEAR=1992
DGENRE=Blues
TTITLE0=Buried Alive
TTITLE1=Wilson
TTITLE2=Divided Sky
TTITLE3=Fee
TTITLE4=It's Ice
TTITLE5=Uncle Pen
TTITLE6=Stash
TTITLE7=Rift
TTITLE8=Fast Enough For You
TTITLE9=I Didn't Know
TTITLE10=David Bowie
EXTD=YEAR: 1992
EXTT0=
EXTT1=
EXTT2=
EXTT3=
EXTT4=
EXTT5=
EXTT6=
EXTT7=
EXTT8=
EXTT9=
EXTT10=
PLAYORDER=
